<svg width="512" height="512" viewBox="0 0 512 512" fill="none" xmlns="http://www.w3.org/2000/svg">
<path d="M112 256C112 176.471 176.471 112 256 112C335.529 112 400 176.471 400 256C400 335.529 335.529 400 256 400C176.471 400 112 335.529 112 256Z" fill="#3888FF"/>
<path d="M256 64C149.961 64 64 149.961 64 256C64 362.039 149.961 448 256 448C362.039 448 448 362.039 448 256C448 149.961 362.039 64 256 64ZM256 112C335.529 112 400 176.471 400 256C400 335.529 335.529 400 256 400C176.471 400 112 335.529 112 256C112 176.471 176.471 112 256 112Z" fill="#0A2540"/>
</svg>