<svg width="800" height="800" viewBox="0 0 800 800" fill="none" xmlns="http://www.w3.org/2000/svg">
<path fill-rule="evenodd" clip-rule="evenodd" d="M437.655 172.536C437.655 235.533 385.711 287.477 322.714 287.477C259.717 287.477 207.773 235.533 207.773 172.536C207.773 109.539 259.717 57.595 322.714 57.595C385.711 57.595 437.655 109.539 437.655 172.536ZM666.191 628.81C666.191 691.807 614.247 743.751 551.25 743.751C488.253 743.751 436.309 691.807 436.309 628.81C436.309 565.813 488.253 513.869 551.25 513.869C614.247 513.869 666.191 565.813 666.191 628.81ZM394.337 400.673C394.337 463.67 342.393 515.614 279.396 515.614C216.399 515.614 164.455 463.67 164.455 400.673C164.455 337.676 216.399 285.732 279.396 285.732C342.393 285.732 394.337 337.676 394.337 400.673ZM208.537 628.81C208.537 691.807 156.593 743.751 93.596 743.751C30.5989 743.751 -21.3452 691.807 -21.3452 628.81C-21.3452 565.813 30.5989 513.869 93.596 513.869C156.593 513.869 208.537 565.813 208.537 628.81Z" fill="#7C81EB"/>
</svg>