<svg width="1024" height="1024" viewBox="0 0 1024 1024" fill="none" xmlns="http://www.w3.org/2000/svg">
<path d="M512 127.376C548.781 127.376 580.032 139.312 605.875 164.875C631.922 190.615 644.906 222.073 644.906 259.5C644.906 296.553 631.781 327.677 605.458 352.864C579.406 378.052 548.155 390.646 511.614 390.646C475.073 390.646 444.156 378.192 418.781 353.282C393.406 328.095 380.719 296.834 380.719 259.5C380.719 222.167 393.553 190.687 419.302 165.292C445.052 139.719 475.948 127.376 512 127.376ZM511.458 127.376C544.5 127.376 573.281 138.958 597.99 162.177C622.698 185.172 635.052 213.958 635.052 248.5C635.052 283.042 623.073 311.427 599.094 333.792C574.937 355.864 545.781 366.864 511.458 366.864C477.135 366.864 448.594 355.864 425.771 333.792C402.948 311.427 391.552 283.042 391.552 248.5C391.552 213.958 403.115 185.172 426.198 162.177C449.282 138.958 477.698 127.376 511.458 127.376ZM512 391.062C548.781 391.062 580.032 403.021 605.875 426.938C631.922 450.854 644.906 481.307 644.906 518.5C644.906 555.693 631.781 586.823 605.458 612.074C579.406 637.047 548.155 649.448 511.614 649.448C475.073 649.448 444.156 636.979 418.781 612.074C393.406 586.812 380.719 555.682 380.719 518.5C380.719 481.318 393.553 450.843 419.302 426.938C445.052 403.021 475.948 391.062 512 391.062ZM511.458 391.062C544.5 391.062 573.281 402.615 597.99 425.802C622.698 448.698 635.052 477.439 635.052 512C635.052 546.561 623.073 574.755 599.094 596.729C574.937 618.419 545.781 629.219 511.458 629.219C477.135 629.219 448.594 618.419 425.771 596.729C402.948 574.745 391.552 546.551 391.552 512C391.552 477.449 403.115 448.688 426.198 425.802C449.282 402.615 477.698 391.062 511.458 391.062ZM512 653.938C548.781 653.938 580.032 665.833 605.875 689.688C631.922 713.542 644.906 743.854 644.906 780.5C644.906 817.146 631.781 848.312 605.458 874.089C579.406 899.865 548.155 912.688 511.614 912.688C475.073 912.688 444.156 899.865 418.781 874.089C393.406 848.312 380.719 817.146 380.719 780.5C380.719 743.854 393.553 713.542 419.302 689.688C445.052 665.833 475.948 653.938 512 653.938ZM511.458 653.938C544.5 653.938 573.281 665.469 597.99 688.562C622.698 711.667 635.052 740.385 635.052 774.667C635.052 808.958 623.073 837.083 599.094 858.938C574.937 880.792 545.781 891.688 511.458 891.688C477.135 891.688 448.594 880.792 425.771 858.938C402.948 837.083 391.552 808.958 391.552 774.667C391.552 740.385 403.115 711.656 426.198 688.562C449.282 665.469 477.698 653.938 511.458 653.938ZM782.771 269.5C782.771 306.552 769.667 337.823 743.427 363.312C717.396 388.792 686.115 401.458 649.572 401.458C613.037 401.458 582.115 389.063 556.698 364.146C531.282 339.233 518.562 308.146 518.562 270.51C518.562 232.874 531.552 201.24 557.427 175.614C583.302 149.989 614.219 137.198 650.365 137.198C686.521 137.198 717.396 149.927 743.042 175.417C768.865 200.906 782.771 232.469 782.771 269.5ZM772.229 259.5C772.229 225.719 759.885 196.896 735.115 173.208C710.344 149.531 680.823 137.615 646.406 137.615C612 137.615 582.979 149.531 559.646 173.208C536.312 196.896 524.552 225.708 524.552 259.5C524.552 293.292 536.448 321.521 560.177 344.406C583.906 367.292 612.656 378.656 646.406 378.656C680.156 378.656 709.448 367.281 734.302 344.406C758.927 321.531 772.229 293.292 772.229 259.5ZM781.031 528.5C781.031 565.317 767.927 596.406 741.687 621.896C715.656 647.375 684.375 660.042 647.833 660.042C611.302 660.042 580.375 647.646 554.958 622.729C529.531 597.823 516.823 566.736 516.823 529.125C516.823 491.514 529.812 459.906 555.687 434.279C581.573 408.654 612.49 395.854 648.636 395.854C684.781 395.854 715.667 408.583 741.302 434.083C767.115 459.573 781.031 491.135 781.031 528.5ZM770.489 518.5C770.489 484.719 758.146 455.896 733.385 432.198C708.615 408.521 679.083 396.615 644.667 396.615C610.26 396.615 581.24 408.521 557.906 432.198C534.583 455.896 522.812 484.708 522.812 518.5C522.812 552.292 534.719 580.521 558.448 603.406C582.167 626.291 610.917 637.656 644.667 637.656C678.417 637.656 707.698 626.281 732.562 603.396C757.198 580.521 770.489 552.292 770.489 518.5ZM781.031 789.5C781.031 826.552 767.927 857.823 741.687 883.302C715.656 908.781 684.375 921.458 647.833 921.458C611.302 921.458 580.375 909.052 554.958 884.146C529.531 859.229 516.823 828.146 516.823 790.5C516.823 752.854 529.812 721.219 555.687 695.594C581.573 669.958 612.49 657.156 648.636 657.156C684.781 657.156 715.667 669.896 741.302 695.385C767.115 720.875 781.031 752.469 781.031 789.5ZM770.489 779.5C770.489 745.719 758.146 716.906 733.385 693.219C708.615 669.531 679.083 657.625 644.667 657.625C610.26 657.625 581.24 669.531 557.906 693.219C534.583 716.895 522.812 745.708 522.812 779.5C522.812 813.292 534.719 841.521 558.448 864.406C582.167 887.292 610.917 898.656 644.667 898.656C678.417 898.656 707.698 887.281 732.562 864.406C757.198 841.521 770.489 813.292 770.489 779.5ZM261.666 260.365C261.666 297.125 248.583 328.208 222.385 353.625C196.364 379.042 165.073 391.823 128.427 391.823C91.8804 391.823 60.9387 379.417 35.5804 354.479C10.222 329.542 -2.5 298.531 -2.5 261.188C-2.5 223.833 10.489 192.177 36.4179 166.375C62.3387 140.573 93.3595 127.771 129.573 127.771C165.5 127.771 196.364 140.521 222.083 166.021C248.011 191.531 261.666 223.229 261.666 260.365ZM251.124 250.365C251.124 216.74 238.781 188.083 213.973 164.552C189.177 141.021 159.645 129.188 125.323 129.188C90.9804 129.188 61.9595 141.031 38.5995 164.552C15.2395 188.083 3.46952 216.729 3.46952 250.365C3.46952 284 15.3804 312.063 39.1512 334.563C62.922 357.063 91.6637 368.292 125.323 368.292C159.166 368.292 188.447 357.063 213.311 334.563C237.947 312.063 251.124 284 251.124 250.365ZM261.666 519.365C261.666 556.125 248.583 587.208 222.385 612.625C196.364 638.042 165.073 650.823 128.427 650.823C91.8804 650.823 60.9387 638.417 35.5804 613.479C10.222 588.542 -2.5 557.531 -2.5 520.188C-2.5 482.833 10.489 451.177 36.4179 425.375C62.3387 399.572 93.3595 386.771 129.573 386.771C165.5 386.771 196.364 399.52 222.083 425.021C248.011 450.531 261.666 482.229 261.666 519.365ZM251.124 509.365C251.124 475.74 238.781 447.083 213.973 423.552C189.177 400.021 159.645 388.188 125.323 388.188C90.9804 388.188 61.9595 400.031 38.5995 423.552C15.2395 447.083 3.46952 475.729 3.46952 509.365C3.46952 543 15.3804 571.063 39.1512 593.562C62.922 616.062 91.6637 627.292 125.323 627.292C159.166 627.292 188.447 616.062 213.311 593.562C237.947 571.063 251.124 543 251.124 509.365ZM261.666 781.365C261.666 818.125 248.583 849.208 222.385 874.625C196.364 900.042 165.073 912.823 128.427 912.823C91.8804 912.823 60.9387 900.417 35.5804 875.479C10.222 850.542 -2.5 819.531 -2.5 782.188C-2.5 744.833 10.489 713.177 36.4179 687.375C62.3387 661.573 93.3595 648.771 129.573 648.771C165.5 648.771 196.364 661.521 222.083 687.021C248.011 712.531 261.666 744.229 261.666 781.365ZM251.124 771.365C251.124 737.74 238.781 709.083 213.973 685.552C189.177 662.021 159.645 650.188 125.323 650.188C90.9804 650.188 61.9595 662.031 38.5995 685.552C15.2395 709.083 3.46952 737.729 3.46952 771.365C3.46952 805 15.3804 833.062 39.1512 855.562C62.922 878.062 91.6637 889.292 125.323 889.292C159.166 889.292 188.447 878.062 213.311 855.562C237.947 833.062 251.124 805 251.124 771.365Z" fill="#0F0F0F"/>
</svg>