<svg width="512" height="512" viewBox="0 0 512 512" fill="none" xmlns="http://www.w3.org/2000/svg">
<path d="M256 64C149.961 64 64 149.961 64 256C64 362.039 149.961 448 256 448C362.039 448 448 362.039 448 256C448 149.961 362.039 64 256 64ZM346.829 212.549L329.859 229.52C327.451 231.927 326.122 235.193 326.122 238.598V305.143C326.122 308.551 327.451 311.815 329.859 314.222L346.829 331.192V335.673H282.938V331.192L300.376 313.755C303.167 310.964 303.167 310.068 303.167 305.143V247.794L258.071 335.207H251.433L200.271 247.794V292.88C200.271 299.271 202.068 304.287 205.947 308.141L228.434 331.192V335.673H179.201V331.192L201.689 308.141C205.555 304.285 207.305 299.247 207.305 292.88V240.009C207.305 235.177 206.025 231.239 203.162 228.382L183.691 204.396C183.245 203.944 183.009 203.329 183.009 202.685C183.009 201.427 184.055 200.381 185.314 200.381H239.602L283.404 275.82L321.615 200.381H373.952C375.21 200.381 376.257 201.427 376.257 202.685C376.257 203.329 376.019 203.944 375.578 204.396L346.829 233.145V212.549Z" fill="#6F4DD9"/>
</svg>