<svg width="512" height="512" viewBox="0 0 512 512" fill="none" xmlns="http://www.w3.org/2000/svg">
<path d="M256 64C149.961 64 64 149.961 64 256C64 362.039 149.961 448 256 448C362.039 448 448 362.039 448 256C448 149.961 362.039 64 256 64Z" fill="#F1EFE3"/>
<path d="M245.935 214.534C266.667 214.534 283.401 197.8 283.401 177.067C283.401 156.335 266.667 139.601 245.935 139.601C225.202 139.601 208.468 156.335 208.468 177.067C208.468 197.8 225.202 214.534 245.935 214.534Z" fill="#3E5F58"/>
<path d="M302.934 258.399C318.134 258.399 330.401 246.132 330.401 230.932C330.401 215.732 318.134 203.466 302.934 203.466C287.734 203.466 275.468 215.732 275.468 230.932C275.468 246.132 287.734 258.399 302.934 258.399Z" fill="#3E5F58"/>
<path d="M307.201 334.934C322.401 334.934 334.667 322.668 334.667 307.468C334.667 292.268 322.401 280.001 307.201 280.001C292.001 280.001 279.734 292.268 279.734 307.468C279.734 322.668 292.001 334.934 307.201 334.934Z" fill="#3E5F58"/>
<path d="M224.001 329.599C245.601 329.599 263.068 312.132 263.068 290.532C263.068 268.932 245.601 251.466 224.001 251.466C202.401 251.466 184.934 268.932 184.934 290.532C184.934 312.132 202.401 329.599 224.001 329.599Z" fill="#3E5F58"/>
<path d="M186.668 247.199C205.602 247.199 221.068 231.732 221.068 212.799C221.068 193.865 205.602 178.399 186.668 178.399C167.735 178.399 152.268 193.865 152.268 212.799C152.268 231.732 167.735 247.199 186.668 247.199Z" fill="#3E5F58"/>
<path d="M171.735 349.332C185.402 349.332 196.535 338.199 196.535 324.532C196.535 310.865 185.402 299.732 171.735 299.732C158.069 299.732 146.935 310.865 146.935 324.532C146.935 338.199 158.069 349.332 171.735 349.332Z" fill="#3E5F58"/>
</svg>